<svg xmlns="http://www.w3.org/2000/svg" width="124" height="36" fill="none"><path fill="url(#a)" d="M22.59 6.564c-.532 1.07-.438 2.314.141 3.338a12.919 12.919 0 0 1 2.08 3.275c.37.794.63 1.6.8 2.474.188.877.288 1.786.288 2.72 0 7.132-5.783 12.915-12.917 12.915-1.646 0-3.22-.308-4.669-.87-1.075-.279-2.247-.085-3.042.698L.31 36.003l7.914-11.154a8.037 8.037 0 0 0 12.813-6.463h-6.222a.969.969 0 0 1-.804-1.508l2.284-3.406 4.053-5.711L25.858 0 22.59 6.564Zm-9.608-1.11c2.465 0 4.766.693 6.725 1.892l-2.836 3.997a8.041 8.041 0 0 0-9.262 1.08 8.038 8.038 0 0 0 .022 11.943L0 35.122l3.158-4.977c.695-1.096.619-2.501-.153-3.543-.095-.129-.186-.256-.276-.38-.41-.534-.78-1.1-1.104-1.695a10.638 10.638 0 0 1-.999-2.384 12.918 12.918 0 0 1-.56-3.773c0-7.133 5.783-12.917 12.916-12.917Z"/><path fill="url(#b)" d="M35.153 24.5v-2l5.829-6.205H35.38v-1.867h8.45v1.999l-5.885 6.206h6.017V24.5h-8.809Zm10.335 2.83v-1.868h1.282c.327 0 .566-.05.717-.15.164-.102.29-.271.377-.51l.283-.698h-.697l-3.603-9.676h2.508l2.528 7.412 2.414-7.412h2.51l-3.943 11.128c-.226.629-.547 1.082-.962 1.358-.403.277-.968.415-1.698.415h-1.716Zm8.674-2.83V14.428h2.188l.094 2.829-.283-.113c.1-.704.308-1.27.622-1.698a2.857 2.857 0 0 1 1.151-.943c.453-.201.95-.302 1.49-.302.742 0 1.365.164 1.868.49a3.1 3.1 0 0 1 1.17 1.359c.263.566.395 1.226.395 1.98v6.47h-2.414v-5.696c0-.566-.057-1.044-.17-1.434-.113-.39-.302-.685-.566-.886-.251-.214-.59-.321-1.018-.321-.642 0-1.157.226-1.547.679-.377.453-.566 1.107-.566 1.962V24.5h-2.414Zm14.521.226c-1.006 0-1.88-.213-2.621-.641a4.56 4.56 0 0 1-1.736-1.849c-.402-.792-.603-1.716-.603-2.772 0-1.056.201-1.974.603-2.754a4.56 4.56 0 0 1 1.736-1.849c.742-.44 1.615-.66 2.621-.66.856 0 1.616.151 2.283.453a4.036 4.036 0 0 1 1.622 1.301c.428.554.692 1.233.792 2.037l-2.49.133c-.1-.642-.352-1.126-.754-1.453-.39-.34-.874-.51-1.453-.51-.78 0-1.383.296-1.81.887-.428.579-.642 1.384-.642 2.415 0 1.044.214 1.855.642 2.433.427.579 1.03.868 1.81.868.591 0 1.082-.17 1.472-.51.402-.34.647-.867.735-1.584l2.49.113c-.1.805-.358 1.503-.773 2.094a4.214 4.214 0 0 1-1.622 1.377c-.667.314-1.434.471-2.302.471Zm9.532 0c-.994 0-1.83-.144-2.509-.433-.666-.29-1.182-.692-1.547-1.208a3.435 3.435 0 0 1-.622-1.754l2.471-.113c.088.528.308.937.66 1.226.352.29.874.434 1.566.434.566 0 1.006-.088 1.32-.264.327-.189.49-.478.49-.868a.916.916 0 0 0-.17-.566c-.112-.15-.326-.283-.64-.396-.315-.113-.78-.226-1.396-.34-1.031-.175-1.843-.39-2.434-.64-.59-.265-1.012-.592-1.263-.981-.24-.39-.359-.875-.359-1.453 0-.943.359-1.704 1.075-2.282.73-.591 1.792-.887 3.188-.887.906 0 1.666.151 2.282.453.617.29 1.094.691 1.434 1.207.352.503.572 1.081.66 1.735l-2.433.114a2.417 2.417 0 0 0-.34-.887 1.523 1.523 0 0 0-.66-.566 2.17 2.17 0 0 0-.98-.207c-.566 0-.994.113-1.283.34-.29.226-.434.527-.434.905 0 .264.063.484.189.66.138.176.358.32.66.434.302.1.704.195 1.207.283 1.056.163 1.886.377 2.49.64.616.252 1.05.58 1.301.982.264.39.396.861.396 1.414 0 .642-.182 1.189-.547 1.641-.352.453-.855.799-1.509 1.038-.641.226-1.395.34-2.263.34Zm5.26 2.603V14.428h2.32l.057 2.15-.245-.113c.251-.742.66-1.302 1.226-1.679.578-.39 1.251-.585 2.018-.585.956 0 1.748.24 2.377.717.641.478 1.119 1.113 1.433 1.905.315.792.472 1.672.472 2.64 0 .97-.164 1.85-.49 2.642-.315.792-.793 1.427-1.434 1.905-.629.477-1.421.716-2.377.716a3.77 3.77 0 0 1-1.414-.264 3.235 3.235 0 0 1-1.113-.754 2.808 2.808 0 0 1-.642-1.15l.227-.19v4.961h-2.415Zm4.791-4.564c.73 0 1.302-.29 1.717-.868.427-.591.641-1.402.641-2.433s-.213-1.836-.641-2.415c-.415-.59-.987-.886-1.717-.886-.49 0-.911.126-1.263.377-.352.24-.629.604-.83 1.094-.189.49-.283 1.1-.283 1.83s.094 1.339.283 1.83c.188.49.459.86.81 1.112.365.24.793.359 1.283.359Zm8.868 1.961c-1.056 0-1.905-.239-2.546-.716-.641-.49-.962-1.17-.962-2.038 0-.867.27-1.546.811-2.037.54-.49 1.364-.842 2.471-1.056l3.339-.66c0-.717-.164-1.251-.49-1.603-.328-.365-.812-.547-1.453-.547-.579 0-1.038.138-1.377.415-.327.264-.553.647-.68 1.15l-2.451-.113c.2-1.069.691-1.886 1.471-2.452.78-.579 1.792-.868 3.037-.868 1.433 0 2.515.365 3.244 1.094.742.717 1.113 1.748 1.113 3.094v3.659c0 .264.044.446.132.547.101.1.245.15.434.15h.321V24.5a1.733 1.733 0 0 1-.378.057 6.616 6.616 0 0 1-.509.018c-.415 0-.786-.062-1.113-.188a1.505 1.505 0 0 1-.754-.698c-.176-.34-.264-.799-.264-1.377l.207.15a2.507 2.507 0 0 1-.66 1.19 3.307 3.307 0 0 1-1.245.791 4.808 4.808 0 0 1-1.698.283Zm.49-1.754c.541 0 1.007-.107 1.397-.32.39-.214.691-.51.905-.887.214-.377.321-.824.321-1.34v-.565l-2.603.528c-.541.113-.93.283-1.17.51-.226.213-.34.496-.34.848 0 .39.126.692.378.905.264.214.635.321 1.113.321Zm10.814 1.754c-1.006 0-1.88-.213-2.622-.641a4.558 4.558 0 0 1-1.735-1.849c-.403-.792-.604-1.716-.604-2.772 0-1.056.201-1.974.604-2.754a4.558 4.558 0 0 1 1.735-1.849c.742-.44 1.616-.66 2.622-.66.855 0 1.616.151 2.282.453a4.032 4.032 0 0 1 1.622 1.301c.428.554.692 1.233.793 2.037l-2.49.133c-.101-.642-.352-1.126-.755-1.453-.39-.34-.874-.51-1.452-.51-.78 0-1.383.296-1.811.887-.427.579-.641 1.384-.641 2.415 0 1.044.214 1.855.641 2.433.428.579 1.031.868 1.811.868.591 0 1.081-.17 1.471-.51.402-.34.648-.867.736-1.584l2.49.113c-.101.805-.359 1.503-.774 2.094a4.217 4.217 0 0 1-1.622 1.377c-.666.314-1.434.471-2.301.471Zm9.795 0c-1.006 0-1.88-.213-2.622-.641a4.43 4.43 0 0 1-1.716-1.849c-.402-.792-.604-1.716-.604-2.772 0-1.056.202-1.974.604-2.754a4.467 4.467 0 0 1 1.698-1.849c.741-.44 1.603-.66 2.584-.66.955 0 1.792.214 2.508.641.73.428 1.289 1.044 1.679 1.849.39.805.585 1.773.585 2.905v.547H115.8c.05.88.289 1.546.717 2 .44.44 1.018.66 1.735.66.541 0 .987-.12 1.339-.359.365-.252.616-.597.755-1.037l2.471.15c-.277.981-.824 1.755-1.641 2.32-.805.566-1.786.85-2.943.85Zm-2.433-6.205h4.659c-.05-.818-.283-1.421-.698-1.811-.415-.402-.943-.604-1.584-.604-.642 0-1.176.208-1.604.623-.415.415-.672 1.012-.773 1.792Z"/><defs><linearGradient id="a" x1="0" x2="25.899" y1="18.002" y2="18.002" gradientUnits="userSpaceOnUse"><stop stop-color="#fff"/><stop offset="1" stop-color="#1463FF"/></linearGradient><linearGradient id="b" x1="33.898" x2="123.898" y1="18" y2="18" gradientUnits="userSpaceOnUse"><stop stop-color="#fff"/><stop offset="1" stop-color="#1463FF"/></linearGradient></defs></svg>